<svg width="1600" height="520" viewBox="0 0 1600 520" fill="none" xmlns="http://www.w3.org/2000/svg">
  <defs>
    <radialGradient id="paperGlow" cx="0" cy="0" r="1" gradientUnits="userSpaceOnUse" gradientTransform="translate(225 140) rotate(41.7) scale(510.6 337.1)">
      <stop stop-color="#FB6B47" stop-opacity="0.26"/>
      <stop offset="0.48" stop-color="#F4BA4D" stop-opacity="0.18"/>
      <stop offset="1" stop-color="#FFFFFF" stop-opacity="0"/>
    </radialGradient>
  </defs>
  <rect width="1600" height="520" rx="0" fill="transparent"/>
  <circle cx="222" cy="260" r="142" fill="#F4EFE8"/>
  <circle cx="222" cy="260" r="142" fill="url(#paperGlow)"/>
  <circle cx="222" cy="260" r="104" stroke="#19161A" stroke-opacity="0.12" stroke-width="2"/>
  <circle cx="222" cy="260" r="80" stroke="#FB6B47" stroke-opacity="0.34" stroke-width="10"/>
  <circle cx="222" cy="260" r="58" fill="#19161A"/>
  <path d="M222 208L234 249L276 237L246 267L288 289L242 294L248 337L222 301L196 337L202 294L156 289L198 267L168 237L210 249L222 208Z" fill="#F4BA4D"/>
  <circle cx="318" cy="182" r="10" fill="#FB6B47"/>
  <circle cx="132" cy="354" r="8" fill="#194E45"/>
  <text x="392" y="232" fill="#19161A" font-family="'Avenir Next', 'Trebuchet MS', 'Segoe UI', sans-serif" font-size="152" font-weight="700" letter-spacing="-10">MUSE</text>
  <text x="392" y="358" fill="#FB6B47" font-family="'Avenir Next', 'Trebuchet MS', 'Segoe UI', sans-serif" font-size="152" font-weight="700" letter-spacing="-10">SPARK</text>
  <text x="398" y="425" fill="#19161A" fill-opacity="0.58" font-family="'SFMono-Regular', 'Cascadia Mono', 'Menlo', monospace" font-size="30" letter-spacing="9">CREATIVE SIGNAL STUDIO</text>
</svg>