<svg width="1024" height="1024" viewBox="0 0 1024 1024" fill="none" xmlns="http://www.w3.org/2000/svg">
  <defs>
    <radialGradient id="halo" cx="0" cy="0" r="1" gradientUnits="userSpaceOnUse" gradientTransform="translate(365 265) rotate(46.1) scale(601.5)">
      <stop stop-color="#FB6B47" stop-opacity="0.30"/>
      <stop offset="0.42" stop-color="#F4BA4D" stop-opacity="0.18"/>
      <stop offset="1" stop-color="#F4EFE8" stop-opacity="0"/>
    </radialGradient>
    <radialGradient id="glow" cx="0" cy="0" r="1" gradientUnits="userSpaceOnUse" gradientTransform="translate(512 512) rotate(90) scale(260)">
      <stop stop-color="#FB6B47" stop-opacity="0.28"/>
      <stop offset="1" stop-color="#FB6B47" stop-opacity="0"/>
    </radialGradient>
  </defs>
  <rect x="48" y="48" width="928" height="928" rx="224" fill="#F4EFE8"/>
  <rect x="48" y="48" width="928" height="928" rx="224" fill="url(#halo)"/>
  <circle cx="512" cy="512" r="308" stroke="#19161A" stroke-opacity="0.12" stroke-width="2"/>
  <circle cx="512" cy="512" r="242" stroke="#FB6B47" stroke-opacity="0.26" stroke-width="18"/>
  <circle cx="512" cy="512" r="182" stroke="#194E45" stroke-opacity="0.18" stroke-width="2"/>
  <circle cx="512" cy="512" r="168" fill="#19161A"/>
  <circle cx="512" cy="512" r="260" fill="url(#glow)"/>
  <path d="M512 374L537 463L625 438L563 502L650 548L554 559L566 650L512 576L458 650L470 559L374 548L461 502L399 438L487 463L512 374Z" fill="#F4BA4D"/>
  <circle cx="742" cy="336" r="18" fill="#FB6B47"/>
  <circle cx="320" cy="770" r="12" fill="#194E45"/>
  <circle cx="742" cy="336" r="38" stroke="#19161A" stroke-opacity="0.10" stroke-width="2"/>
  <text x="512" y="874" text-anchor="middle" fill="#19161A" fill-opacity="0.56" font-family="'SFMono-Regular', 'Cascadia Mono', 'Menlo', monospace" font-size="46" letter-spacing="10">MUSE SPARK</text>
</svg>